<?xml version="1.0" encoding="UTF-8"?>
<svg id="Layer_2" xmlns="http://www.w3.org/2000/svg" viewBox="0 0 255.12 218">
  <defs>
    <style>
      .cls-1 {
        fill: #0b1215;
      }

      .cls-2 {
        fill: #fff;
      }
    </style>
  </defs>
  <g id="_레이어_3" data-name="레이어_3">
    <g>
      <path class="cls-1" d="M34.52,147.06c-6.41,0-11.62,5.25-11.62,11.7v24.62c0,6.45,5.21,11.7,11.62,11.7s11.62-5.25,11.62-11.7v-24.62c0-6.45-5.21-11.7-11.62-11.7Z"/>
      <path class="cls-1" d="M34.52,66.44c-6.18,0-11.24,5.02-11.59,11.32h23.18c-.35-6.3-5.41-11.32-11.59-11.32Z"/>
      <path class="cls-1" d="M232.41,53.55c0-6.61-5.21-11.99-11.62-11.99s-11.62,5.38-11.62,11.99v15.48h23.25v-15.48Z"/>
      <path class="cls-1" d="M245.41,148.97h-114.35v-8.95c0-5.35-4.35-9.7-9.7-9.7h-52.32v-17.81h176.38c5.35,0,9.7-4.35,9.7-9.7V9.7c0-5.35-4.35-9.7-9.7-9.7h-49.62c-5.35,0-9.7,4.35-9.7,9.7v15.11h-52.33c-5.35,0-9.7,4.35-9.7,9.7v8.95H9.7c-5.35,0-9.7,4.35-9.7,9.7v155.12c0,5.35,4.35,9.7,9.7,9.7h235.71c5.35,0,9.7-4.35,9.7-9.7v-49.62c0-5.35-4.35-9.7-9.7-9.7ZM202.16,53.55c0-10.47,8.36-18.99,18.63-18.99s18.63,8.52,18.63,18.99v18.77c0,.07.02.14.02.21s-.02.14-.02.21v20.35c0,1.93-1.57,3.5-3.5,3.5s-3.5-1.57-3.5-3.5v-17.06h-23.25v17.06c0,1.93-1.57,3.5-3.5,3.5s-3.5-1.57-3.5-3.5v-39.54ZM143.57,46.97h0c1.93,0,3.5,1.57,3.5,3.5v19.28c3.19-2.61,7.23-4.17,11.63-4.17,10.27,0,18.62,8.52,18.62,18.99v8.52c0,1.93-1.57,3.5-3.5,3.5s-3.5-1.57-3.5-3.5v-8.52c0-6.61-5.21-11.99-11.62-11.99s-11.62,5.38-11.62,11.99v8.52c0,1.39-.81,2.58-1.98,3.14-.05.03-.1.06-.15.08-.12.05-.25.08-.37.11-.1.03-.19.07-.29.09-.17.03-.34.04-.52.05-.06,0-.12.02-.19.02h0c-1.93,0-3.5-1.57-3.5-3.5v-42.62c0-1.93,1.56-3.5,3.49-3.5ZM81.48,59.38h0c1.93,0,3.5,1.57,3.5,3.5v12.98c3.19-2.61,7.23-4.17,11.63-4.17,10.27,0,18.62,8.52,18.62,18.99v2.42c0,1.93-1.57,3.5-3.5,3.5s-3.5-1.57-3.5-3.5v-2.42c0-6.61-5.21-11.99-11.62-11.99s-11.62,5.38-11.62,11.99v2.42h0c0,.06-.01.11-.02.17,0,.18-.02.36-.05.54-.01.06-.04.12-.06.18-.04.16-.08.32-.15.48,0,0,0,.01,0,.02-.27.62-.71,1.15-1.26,1.52,0,0-.02,0-.03.02-.18.12-.37.22-.57.31,0,0-.02,0-.03,0-.2.08-.41.15-.63.2-.16.03-.33.04-.5.05-.07,0-.14.02-.21.02h0c-.32,0-.62-.06-.91-.13-1.04-.28-1.9-1.02-2.32-2-.18-.42-.28-.88-.28-1.36v-30.21c0-1.93,1.56-3.5,3.49-3.5ZM53.14,183.39c0,10.31-8.36,18.7-18.63,18.7s-18.63-8.39-18.63-18.7v-24.62c0-10.31,8.36-18.7,18.63-18.7s18.63,8.39,18.63,18.71v24.62ZM53.14,81.37v11.75c0,1.94-1.57,3.51-3.5,3.51s-3.5-1.57-3.5-3.51v-8.35h-23.25v8.35c0,1.94-1.57,3.51-3.5,3.51s-3.5-1.57-3.5-3.51v-11.79s0-.04,0-.07,0-.04,0-.07v-2.75c0-10.49,8.36-19.03,18.63-19.03s18.63,8.54,18.63,19.03v2.71s.01.07.01.11,0,.07-.01.11ZM115.23,198.59c0,1.93-1.57,3.5-3.5,3.5s-3.5-1.57-3.5-3.5v-8.52c0-6.61-5.21-11.99-11.62-11.99s-11.62,5.38-11.62,11.99v8.52c0,1.45-.88,2.69-2.13,3.22,0,0,0,0,0,0-.42.18-.88.28-1.36.28-1.93,0-3.5-1.57-3.5-3.5v-42.62c0-1.93,1.56-3.5,3.49-3.5h0c1.93,0,3.5,1.57,3.5,3.5v19.28c3.19-2.61,7.23-4.17,11.63-4.17,10.27,0,18.62,8.52,18.62,18.99v8.52ZM177.32,198.59c0,1.93-1.57,3.5-3.5,3.5s-3.5-1.57-3.5-3.5v-2.42c0-6.61-5.21-11.99-11.62-11.99s-11.62,5.38-11.62,11.99v2.42s0,0,0,0h0c0,.06-.01.11-.02.17,0,.18-.02.36-.05.54-.01.06-.04.12-.06.18-.04.16-.08.32-.15.48,0,0,0,.01,0,.02-.27.62-.71,1.15-1.26,1.52,0,0-.02,0-.03.02-.18.12-.37.22-.57.31,0,0-.02,0-.03,0-.2.08-.41.15-.63.2-.16.03-.33.04-.5.05-.07,0-.14.02-.21.02h0c-.32,0-.62-.06-.91-.13-1.04-.28-1.9-1.02-2.32-2-.18-.42-.28-.88-.28-1.36v-30.21c0-1.93,1.56-3.5,3.49-3.5h0c1.93,0,3.5,1.57,3.5,3.5v12.98c3.19-2.61,7.23-4.17,11.63-4.17,10.27,0,18.62,8.52,18.62,18.99v2.42ZM220.79,202.09c-10.27,0-18.63-8.35-18.63-18.61s8.36-18.61,18.63-18.61,18.63,8.35,18.63,18.61-8.36,18.61-18.63,18.61Z"/>
      <path class="cls-1" d="M220.79,171.84c-6.41,0-11.62,5.22-11.62,11.64s5.21,11.64,11.62,11.64,11.62-5.22,11.62-11.64-5.21-11.64-11.62-11.64Z"/>
      <path class="cls-2" d="M205.66,96.59c1.93,0,3.5-1.57,3.5-3.5v-17.06h23.25v17.06c0,1.93,1.57,3.5,3.5,3.5s3.5-1.57,3.5-3.5v-20.35c0-.07.02-.14.02-.21s-.02-.14-.02-.21v-18.77c0-10.47-8.36-18.99-18.63-18.99s-18.63,8.52-18.63,18.99v39.54c0,1.93,1.57,3.5,3.5,3.5ZM209.16,53.55c0-6.61,5.21-11.99,11.62-11.99s11.62,5.38,11.62,11.99v15.48h-23.25v-15.48Z"/>
      <path class="cls-2" d="M77.99,93.09c0,.48.1.94.28,1.36.42.98,1.27,1.72,2.32,2,.29.08.59.13.91.13h0c.07,0,.14-.02.21-.02.17-.01.34-.02.5-.05.22-.04.43-.11.63-.2,0,0,.02,0,.03,0,.2-.08.39-.19.57-.31,0,0,.02,0,.03-.02.55-.37.99-.9,1.26-1.52,0,0,0-.01,0-.02.06-.15.11-.31.15-.48.02-.06.04-.12.06-.18.04-.17.05-.36.05-.54,0-.06.02-.11.02-.17h0v-2.42c0-6.61,5.21-11.99,11.62-11.99s11.62,5.38,11.62,11.99v2.42c0,1.93,1.57,3.5,3.5,3.5s3.5-1.57,3.5-3.5v-2.42c0-10.47-8.35-18.99-18.62-18.99-4.4,0-8.44,1.56-11.63,4.17v-12.98c0-1.93-1.57-3.5-3.5-3.5h0c-1.93,0-3.5,1.57-3.5,3.5v29.82s0,.4,0,.4Z"/>
      <path class="cls-2" d="M140.08,93.09c0,1.93,1.57,3.5,3.5,3.5h0c.06,0,.12-.02.19-.02.18,0,.35-.02.52-.05.1-.02.19-.06.29-.09.12-.04.25-.06.37-.11.05-.02.1-.06.15-.08,1.17-.57,1.98-1.75,1.98-3.14v-8.52c0-6.61,5.21-11.99,11.62-11.99s11.62,5.38,11.62,11.99v8.52c0,1.93,1.57,3.5,3.5,3.5s3.5-1.57,3.5-3.5v-8.52c0-10.47-8.35-18.99-18.62-18.99-4.4,0-8.44,1.56-11.63,4.17v-19.28c0-1.93-1.57-3.5-3.5-3.5h0c-1.93,0-3.5,1.57-3.5,3.5v38.1s0,4.52,0,4.52Z"/>
      <path class="cls-2" d="M53.14,78.45c0-10.49-8.36-19.03-18.63-19.03s-18.63,8.54-18.63,19.03v2.75s0,.04,0,.07,0,.04,0,.07v11.79c0,1.94,1.57,3.51,3.5,3.51s3.5-1.57,3.5-3.51v-8.35h23.25v8.35c0,1.94,1.57,3.51,3.5,3.51s3.5-1.57,3.5-3.51v-11.75s.01-.07.01-.11,0-.07-.01-.11v-2.71ZM22.93,77.76c.35-6.3,5.41-11.32,11.59-11.32s11.24,5.02,11.59,11.32h-23.18Z"/>
      <path class="cls-2" d="M96.61,171.08c-4.4,0-8.44,1.56-11.63,4.17v-19.28c0-1.93-1.57-3.5-3.5-3.5h0c-1.93,0-3.5,1.57-3.5,3.5v37.85s0,4.77,0,4.77c0,1.93,1.57,3.5,3.5,3.5.48,0,.94-.1,1.36-.28,0,0,0,0,0,0,1.25-.53,2.13-1.77,2.13-3.22v-8.52c0-6.61,5.21-11.99,11.62-11.99s11.62,5.38,11.62,11.99v8.52c0,1.93,1.57,3.5,3.5,3.5s3.5-1.57,3.5-3.5v-8.52c0-10.47-8.35-18.99-18.62-18.99Z"/>
      <path class="cls-2" d="M158.7,177.18c-4.4,0-8.44,1.56-11.63,4.17v-12.98c0-1.93-1.57-3.5-3.5-3.5h0c-1.93,0-3.5,1.57-3.5,3.5v29.82s0,.4,0,.4c0,.48.1.94.28,1.36.42.98,1.27,1.72,2.32,2,.29.08.59.13.91.13h0c.07,0,.14-.02.21-.02.17-.01.34-.02.5-.05.22-.04.43-.11.63-.2,0,0,.02,0,.03,0,.2-.08.39-.19.57-.31,0,0,.02,0,.03-.02.55-.37.99-.9,1.26-1.52,0,0,0-.01,0-.02.06-.15.11-.31.15-.48.02-.06.04-.12.06-.18.04-.17.05-.36.05-.54,0-.06.02-.11.02-.17h0s0,0,0,0v-.2s0-2.22,0-2.22c0-6.61,5.21-11.99,11.62-11.99s11.62,5.38,11.62,11.99v2.42c0,1.93,1.57,3.5,3.5,3.5s3.5-1.57,3.5-3.5v-2.42c0-10.47-8.35-18.99-18.62-18.99Z"/>
      <path class="cls-2" d="M220.79,164.87c-10.27,0-18.63,8.35-18.63,18.61s8.36,18.61,18.63,18.61,18.63-8.35,18.63-18.61-8.36-18.61-18.63-18.61ZM220.79,195.12c-6.41,0-11.62-5.22-11.62-11.64s5.21-11.64,11.62-11.64,11.62,5.22,11.62,11.64-5.21,11.64-11.62,11.64Z"/>
      <path class="cls-2" d="M34.52,140.06c-10.27,0-18.63,8.39-18.63,18.7v24.62c0,10.31,8.35,18.7,18.62,18.7s18.63-8.39,18.63-18.7v-24.62c0-10.31-8.35-18.71-18.62-18.71ZM46.14,183.39c0,6.45-5.21,11.7-11.62,11.7s-11.62-5.25-11.62-11.7v-24.62c0-6.45,5.22-11.7,11.62-11.7s11.62,5.25,11.62,11.7v24.62Z"/>
    </g>
  </g>
</svg>