<svg width="70" height="70" viewBox="0 0 70 70" fill="none" xmlns="http://www.w3.org/2000/svg">
<g filter="url(#filter0_dd_4558_87742)">
<g clip-path="url(#clip0_4558_87742)">
<rect x="11" y="7" width="48" height="48" rx="8" fill="#F5F5F5"/>
<g clip-path="url(#clip1_4558_87742)">
<path d="M21.3339 17.6011C21.3339 17.6011 19.3025 19.2726 17.2711 22.5228C15.2397 25.7731 12.0073 31.4004 12.3744 36.4077C12.3744 36.4077 -1.57461 39.2196 -2.31234 39.4833C-3.05006 39.747 -4.62172 40.6273 -2.8683 42.0315C-1.11487 43.4392 7.7556 50.82 7.7556 50.82C7.7556 50.82 3.04416 60.838 2.67352 61.4545C2.30288 62.0711 1.4725 64.4411 4.70493 63.6499C7.93736 62.8587 29.4346 57.1886 29.4346 57.1886C29.4346 57.1886 54.5635 61.312 55.7609 61.6719C57.3789 62.1566 58.2093 60.9699 56.7303 59.5194C55.3618 58.1794 49.1357 46.1655 49.1357 46.1655C49.1357 46.1655 55.9213 40.1569 56.8444 39.3657C57.7674 38.5745 59.7062 37.4305 55.8287 36.2901C51.9476 35.1461 42.3929 32.1061 42.3929 32.1061C42.3929 32.1061 40.0835 21.3859 33.9857 15.8477C33.0056 15.0636 31.769 14.3544 32.414 16.1114C33.0591 17.8684 33.8004 24.6362 30.4753 27.7118C27.1502 30.7874 24.1031 30.7874 23.1765 23.845C23.0838 22.088 23.1301 19.1443 23.6861 17.6047C23.6861 17.6047 23.8322 17.0986 23.9855 16.6816C24.1779 16.1613 24.3419 15.7194 23.7788 15.8905C22.7631 16.1969 21.3304 17.6047 21.3304 17.6047L21.3339 17.6011Z" fill="#EBFF32"/>
<path d="M42.3964 32.0992C42.3964 32.0992 40.087 21.3791 33.9892 15.8409C33.0092 15.0568 31.7725 14.3476 32.4176 16.1046C33.0626 17.8616 33.8039 24.6294 30.4788 27.705C27.1537 30.7806 24.1066 30.7806 23.18 23.8382C23.0874 22.0812 23.1337 19.1374 23.6897 17.5978C23.6897 17.5978 23.8358 17.0918 23.989 16.6748C24.1815 16.1545 24.3454 15.7126 23.7823 15.8836C22.7666 16.1901 21.3339 17.5978 21.3339 17.5978C21.3339 17.5978 19.3025 19.2693 17.2711 22.5195C15.2397 25.7698 12.0073 31.3972 12.3744 36.4044C12.3744 36.4044 18.5719 41.5471 27.7097 41.964C39.278 42.4915 42.1897 33.2646 42.3964 32.0992Z" fill="#5BB3FD"/>
<path d="M22.5422 33.9955C22.5422 33.9955 20.0047 34.0062 19.57 36.9464C19.1352 39.8901 19.1779 44.5303 21.6619 45.3179C24.146 46.1055 25.8424 44.1989 26.017 42.0035C26.1916 39.8082 26.6799 33.8316 22.5422 33.9955Z" fill="white"/>
<path d="M22.7702 45.7632C22.3818 45.7632 21.979 45.699 21.5692 45.5672C19.0602 44.7724 18.7751 40.4067 19.2919 36.9105C19.7409 33.8777 22.339 33.7387 22.5279 33.7315C23.5222 33.6923 24.3419 33.981 24.9656 34.594C26.7404 36.3403 26.4268 40.3033 26.2913 41.9962C26.1808 43.411 25.5073 44.6227 24.4916 45.2678C23.9713 45.5957 23.3903 45.7632 22.7702 45.7632ZM22.5421 34.259C22.4423 34.259 20.2363 34.3196 19.8407 36.9854C19.4487 39.6404 19.4059 44.3269 21.7438 45.0682C22.6419 45.3533 23.4866 45.2714 24.1815 44.8294C25.0547 44.277 25.6356 43.2114 25.7354 41.9819C25.8672 40.3354 26.1666 36.5363 24.5664 34.9611C24.0497 34.455 23.3939 34.2234 22.5493 34.259H22.5386H22.5421Z" fill="black"/>
<path d="M22.6705 35.5386C22.6705 35.5386 20.6462 35.6099 20.5357 38.0262C20.4359 40.2001 20.2578 43.6749 22.4103 43.9921C24.9371 44.3663 25.1723 41.9393 25.0654 39.1452C24.9906 37.1031 24.5415 35.5813 22.6705 35.5386Z" fill="#2CE69D" fill-opacity="0.807843"/>
<path d="M22.8131 36.6252C22.8131 36.6252 21.245 36.5646 21.1701 38.4784C21.106 40.1107 21.0953 42.3417 22.5101 42.6125C24.2457 42.944 24.5344 41.1193 24.4311 39.1057C24.3634 37.8049 24.178 36.7214 22.8166 36.6252H22.8131Z" fill="black"/>
<path d="M21.7972 37.9189C21.7972 37.9189 21.2056 37.9367 21.145 38.6887C21.0845 39.4407 21.0452 40.2105 21.6368 40.378C22.2285 40.5455 22.6419 40.1142 22.6632 39.5725C22.6846 39.0272 22.8201 37.8262 21.7937 37.9224L21.7972 37.9189Z" fill="white"/>
<path d="M30.8959 41.9887C30.8959 41.9887 30.7641 43.3608 29.285 44.1734C27.806 44.986 27.6065 44.4692 27.3641 44.2732C27.1218 44.0772 25.5964 41.9994 26.9472 40.8447C28.2979 39.69 30.2972 40.5596 30.8959 41.9887Z" fill="#FF7140"/>
<path d="M27.6635 44.9327C27.6136 44.9327 27.5638 44.922 27.521 44.8935C26.7619 44.4551 25.9529 43.1579 26.0063 41.996C26.042 41.2013 26.4625 40.5919 27.2181 40.2355C29.0214 39.3873 30.536 40.7629 31.0884 41.6076C31.1704 41.7323 31.1276 41.8927 30.9993 41.9711C30.871 42.0495 30.7 42.0103 30.618 41.8856C30.5645 41.8036 29.2673 39.8613 27.4675 40.7095C26.8937 40.9803 26.5908 41.4187 26.5623 42.021C26.5195 42.9583 27.2002 44.0916 27.8097 44.4444C27.9415 44.5193 27.9807 44.6832 27.9023 44.8079C27.8489 44.8899 27.7598 44.9362 27.6635 44.9362V44.9327Z" fill="#231815"/>
<path d="M28.6613 45.9911C28.2835 45.9911 27.8808 45.9341 27.4531 45.8236C27.307 45.7844 27.2179 45.6383 27.2607 45.4993C27.2999 45.3603 27.4531 45.2747 27.6028 45.3139C28.5936 45.5741 29.4239 45.4886 30.069 45.068C31.3021 44.2626 31.5017 42.4628 31.5052 42.445C31.5195 42.2989 31.6514 42.1956 31.8082 42.2098C31.9614 42.2241 32.0719 42.3524 32.0576 42.4985C32.0505 42.5805 31.8331 44.5548 30.3862 45.5028C29.8908 45.8271 29.3135 45.9911 28.6648 45.9911H28.6613Z" fill="black"/>
<path d="M20.9667 47.5022C20.8313 47.5022 20.7137 47.4095 20.6923 47.2776C20.3751 45.2106 19.6552 43.7957 18.554 43.0794C17.5062 42.3987 16.4656 42.6161 16.4549 42.6161C16.3052 42.6517 16.1591 42.5591 16.1234 42.4201C16.0878 42.2775 16.1805 42.1385 16.3301 42.1029C16.38 42.0922 17.606 41.8285 18.8569 42.6339C20.0971 43.4358 20.899 44.9682 21.2411 47.1957C21.2625 47.3382 21.1592 47.4736 21.0059 47.495C20.9917 47.495 20.9774 47.495 20.9667 47.495V47.5022Z" fill="black"/>
<path d="M38.1375 40.6811C38.3121 38.4857 38.7648 33.6531 34.6271 33.8171C34.6271 33.8171 32.0896 33.8277 31.6548 36.7679C31.22 39.7081 31.2628 44.3519 33.7468 45.1395C33.7468 45.1395 34.0604 45.3034 35.1154 45.3034C35.1154 45.3034 35.012 41.2941 37.8987 40.7131L38.1411 40.6811H38.1375Z" fill="white"/>
<path d="M35.3969 45.5673H35.1118C34.146 45.5673 33.7539 45.4354 33.6363 45.382C31.1452 44.573 30.8601 40.2179 31.3768 36.7289C31.8401 33.5962 34.595 33.5499 34.6235 33.5499C35.7319 33.5071 36.6229 33.8065 37.2715 34.4409C38.7933 35.9377 38.5509 38.9634 38.4226 40.5886L38.3977 40.9057L37.9344 40.9699C35.3256 41.4973 35.3898 45.2572 35.3898 45.2929L35.3969 45.5637V45.5673ZM33.8751 44.908C33.8751 44.908 34.1246 45.0149 34.8374 45.0363C34.8694 44.0811 35.1866 40.9913 37.8346 40.4531L37.8738 40.446C37.9985 38.8815 38.1874 36.1052 36.8688 34.808C36.3306 34.2769 35.6 34.0382 34.6342 34.0774C34.5309 34.0774 32.3213 34.1344 31.9257 36.8037C31.5337 39.4588 31.4909 44.1453 33.8288 44.8866L33.8751 44.9044V44.908Z" fill="black"/>
<path d="M34.4954 43.8139C32.3429 43.4967 32.5246 40.0219 32.6208 37.8479C32.7313 35.4352 34.7556 35.3604 34.7556 35.3604C36.6302 35.4031 37.0329 36.957 37.1078 38.9991L37.0579 40.4496C37.0579 40.4496 36.1562 41.0982 35.6038 41.8003C35.6038 41.8003 34.9587 42.6449 34.8198 43.0405C34.6808 43.4361 34.4954 43.8139 34.4954 43.8139Z" fill="#2CE69D" fill-opacity="0.807843"/>
<path d="M38.7757 41.1585C39.435 41.1906 40.2404 41.7074 40.5255 41.9675C41.2169 42.5948 41.2525 43.4287 41.1136 44.2591C40.9746 45.0895 40.3937 45.9555 39.6239 46.3689C39.0857 46.6576 38.1876 46.8465 37.4927 46.6647C36.7621 46.4723 35.9531 45.902 35.7963 45.1964C35.6395 44.4907 35.8533 43.1472 36.2631 42.5449C36.2631 42.5449 37.0115 41.073 38.7757 41.1621V41.1585Z" fill="#FF7140"/>
<path d="M38.1196 41.5364C38.1196 41.5364 37.4603 41.6683 37.3071 42.2135C37.1503 42.7588 37.4532 43.3504 38.1303 43.1687C38.8075 42.9869 39.1532 42.6483 39.2316 42.3026C39.2921 42.0282 38.9607 41.3832 38.1232 41.5364H38.1196Z" fill="white"/>
<path d="M36.3271 25.506C35.9671 27.1347 33.729 32.2952 28.0838 31.7998C22.4386 31.3044 23.1728 23.7241 23.1728 23.7241C24.0958 30.6665 27.1465 30.7699 30.4716 27.6942C33.7967 24.6186 33.059 17.8508 32.4104 16.0938C31.7653 14.3369 32.9984 15.0461 33.982 15.8301C33.982 15.8301 37.8381 18.6848 36.3271 25.5096V25.506Z" fill="#EBFF32"/>
<path d="M29.6733 32.3202C29.5521 32.3202 29.4381 32.2418 29.406 32.1242C29.3668 31.9852 29.4559 31.8391 29.602 31.8035C35.8637 30.2247 35.6356 23.7705 34.9442 20.0641C34.2386 16.2935 32.5172 15.5665 32.4994 15.5593C32.3569 15.5023 32.2927 15.3491 32.3497 15.2136C32.4103 15.0782 32.5707 15.0176 32.7133 15.0711C32.7952 15.1032 34.7304 15.9193 35.4895 19.9714C36.2165 23.856 36.4339 30.6238 29.7446 32.3131C29.7196 32.3202 29.6982 32.3202 29.6733 32.3202Z" fill="#5BB3FD"/>
<path d="M34.5345 36.6252C34.5345 36.6252 33.0199 36.5647 32.945 38.3858C32.8809 39.9361 32.806 42.0744 34.2387 42.3132C35.8246 42.5733 36.1953 40.8948 36.0955 38.981C36.0278 37.7443 35.8496 36.7143 34.5345 36.6252Z" fill="black"/>
<path d="M33.5759 37.9189C33.5759 37.9189 32.9843 37.9367 32.9237 38.6887C32.8631 39.4407 32.8239 40.2105 33.4155 40.378C34.0071 40.5455 34.4205 40.1142 34.4419 39.5725C34.4633 39.0272 34.5987 37.8262 33.5723 37.9224L33.5759 37.9189Z" fill="white"/>
<path d="M45.2967 35.7722C45.3895 35.0725 45.6562 34.4077 45.919 33.7544C46.7192 31.7754 47.469 29.9122 48.2692 27.9331C48.3774 27.6664 48.4741 27.3804 48.6751 27.1717C48.9766 26.8586 49.5409 26.7774 49.8308 26.8006C50.3449 26.8431 50.9286 27.6703 51.0793 28.1651C51.4118 29.2706 50.9402 30.0823 50.7701 31.2265C50.5575 32.6373 49.8115 33.9284 48.8683 35.003C48.0914 35.8881 47.183 36.6419 46.2592 37.3686C45.7528 37.7667 45.6059 37.7938 45.3972 37.1328C45.258 36.696 45.2387 36.2244 45.2967 35.7761V35.7722Z" fill="#FFC20B"/>
<path d="M45.6406 37.8365L40.3334 37.4731L44.4191 40.0514L43.1668 42.6296L46.1547 43.221L46.1006 47.9523L50.1825 42.3126L45.6406 37.8365Z" fill="#FF7140"/>
<path d="M50.7583 31.4045C52.2928 31.8027 53.8583 31.6751 55.4045 31.3272C55.8567 31.2267 56.309 31.0914 56.769 31.0798C57.229 31.0682 57.7237 31.1958 58.0368 31.5359C58.377 31.9109 58.4388 32.4559 58.4272 32.9623C58.4156 33.3759 58.3615 33.7972 58.1837 34.1683C58.0059 34.5394 57.6928 34.8641 57.2947 34.98C58.1683 34.9568 58.9143 35.7763 58.9916 36.646C59.0689 37.5157 58.6012 38.3661 57.9441 38.9421C58.3731 39.0542 58.6437 39.5141 58.6514 39.9587C58.6592 40.4032 58.4466 40.8206 58.1799 41.1763C57.5768 41.9803 56.6569 42.7108 55.6557 42.792C55.6557 42.792 52.5827 44.1642 48.7483 42.5601C44.9138 40.9559 45.2153 36.1512 45.2153 36.1512C45.3776 34.8331 45.6869 33.917 46.4136 32.7767C47.1403 31.6364 49.2237 31.0102 50.7544 31.4045H50.7583Z" fill="#FFC20B"/>
<path d="M49.4517 45.0531L53.3133 46.0001C53.6612 46.0852 54.0206 45.7373 54.1095 45.2232L57.4222 26.5301C57.4493 26.3871 57.4492 26.2402 57.4299 26.101L56.7303 21.3814C56.4095 20.2295 55.3658 19.9744 54.6778 20.8789L52.4358 24.8757C52.3701 24.9955 52.3199 25.1308 52.2967 25.2738L48.984 43.9669C48.8912 44.481 49.1038 44.9681 49.4517 45.0531Z" fill="black"/>
<mask id="mask0_4558_87742" style="mask-type:luminance" maskUnits="userSpaceOnUse" x="48" y="20" width="10" height="27">
<path d="M49.4517 45.0531L53.3133 46.0001C53.6612 46.0852 54.0206 45.7373 54.1095 45.2232L57.4222 26.5301C57.4493 26.3871 57.4492 26.2402 57.4299 26.101L56.7303 21.3814C56.4095 20.2295 55.3658 19.9744 54.6778 20.8789L52.4358 24.8757C52.3701 24.9955 52.3199 25.1308 52.2967 25.2738L48.984 43.9669C48.8912 44.481 49.1038 44.9681 49.4517 45.0531Z" fill="white"/>
</mask>
<g mask="url(#mask0_4558_87742)">
<path d="M56.2899 42.1812C56.4174 42.1503 56.5295 42.0188 56.5604 41.8449C56.5991 41.6168 56.4909 41.3965 56.3169 41.354L49.251 39.6571C49.077 39.6146 48.9031 39.7653 48.8644 39.9934C48.8258 40.2214 48.934 40.4418 49.1079 40.4843L56.1739 42.1812C56.2126 42.1889 56.2551 42.1889 56.2899 42.1812Z" fill="white"/>
<path d="M55.6174 41.1878L49.2472 39.6571L51.3461 26.2441L57.7125 27.6705L55.6174 41.1878Z" fill="#FF7140"/>
<path d="M54.678 46.6533L48.2808 45.2656L48.3001 41.752L54.6819 43.1126L54.678 46.6533Z" fill="#FF8D8D"/>
<path d="M58.0178 27.0713L51.6515 25.7107L52.2391 24.7637L58.5938 26.1166L58.0178 27.0713Z" fill="#FF7140"/>
<path d="M58.7987 26.3872C58.9262 26.3563 59.0383 26.2249 59.0692 26.051C59.1079 25.8229 58.9997 25.6026 58.8257 25.56L51.7598 23.8631C51.5858 23.8206 51.4119 23.9714 51.3732 24.1994C51.3346 24.4275 51.4428 24.6478 51.6167 24.6903L58.6827 26.3872C58.7214 26.395 58.7639 26.395 58.7987 26.3872Z" fill="white"/>
<path d="M58.5278 27.941C58.6554 27.91 58.7675 27.7786 58.7984 27.6047C58.8371 27.3766 58.7288 27.1563 58.5549 27.1138L51.4889 25.4168C51.315 25.3743 51.141 25.5251 51.1024 25.7531C51.0637 25.9812 51.172 26.2015 51.3459 26.244L58.4119 27.941C58.4505 27.9487 58.493 27.9487 58.5278 27.941Z" fill="white"/>
<path d="M57.1133 25.7299L56.5914 25.123L56.0967 25.4941L55.7681 24.9413L55.1535 25.2544L54.7322 24.6746L54.0751 24.9336L53.5996 24.2958L52.9618 24.7017C52.9618 24.7017 52.5212 22.6143 52.6951 22.3747C52.9464 22.0345 54.4732 21.9147 56.8388 22.6453C57.2563 22.7728 57.264 23.2212 57.2833 23.5073C57.3065 23.8667 57.4032 24.7287 57.3297 25.3085L57.1171 25.726L57.1133 25.7299Z" fill="#FFE7BD"/>
<path d="M56.0194 43.7349C56.1469 43.704 56.259 43.5726 56.2899 43.3986C56.3286 43.1706 56.2204 42.9502 56.0464 42.9077L48.9805 41.2108C48.8065 41.1683 48.6326 41.319 48.5939 41.5471C48.5553 41.7751 48.6635 41.9955 48.8374 42.038L55.9034 43.7349C55.9421 43.7426 55.9846 43.7426 56.0194 43.7349Z" fill="white"/>
</g>
<path d="M57.2445 31.2227C57.1943 31.7097 56.1545 32.3514 55.5786 32.4712C54.9408 32.6026 54.2218 32.7418 53.7232 32.8655C53.0158 33.0355 52.3007 33.3216 51.833 33.855C51.3653 34.3884 51.2222 35.2234 51.6668 35.7684C52.0572 36.2438 52.7529 36.3752 53.3907 36.3984C52.3548 36.5453 51.7325 37.6044 51.8098 38.5901C51.8291 38.853 52.1383 39.657 53.2632 39.9817C53.2632 39.9817 52.0417 40.5151 52.3239 42.0419C52.4592 42.7532 53.267 42.989 54.0208 43.159C56.1352 42.958 57.7277 42.0651 58.4196 40.8436" fill="#FFC20B"/>
<path d="M57.2445 31.2227C57.1943 31.7097 56.1545 32.3514 55.5786 32.4712C54.9408 32.6026 54.2218 32.7418 53.7232 32.8655C53.0158 33.0355 52.3007 33.3216 51.833 33.855C51.3653 34.3884 51.2222 35.2234 51.6668 35.7684C52.0572 36.2438 52.7529 36.3752 53.3907 36.3984C52.3548 36.5453 51.7325 37.6044 51.8098 38.5901C51.8291 38.853 52.1383 39.657 53.2632 39.9817C53.2632 39.9817 52.0417 40.5151 52.3239 42.0419C52.4592 42.7532 53.267 42.989 54.0208 43.159C56.1352 42.958 57.7277 42.0651 58.4196 40.8436" stroke="#DD9300" stroke-width="0.242343" stroke-linecap="round" stroke-linejoin="round"/>
<path d="M57.2444 34.918C57.4647 34.8639 57.5381 35.0262 57.2598 35.1344C55.9185 35.6524 55.0643 36.1858 53.5529 36.4835C53.2359 36.5453 52.9924 36.5105 53.0117 36.4062C53.0311 36.3018 53.2669 36.2631 53.5838 36.2013C54.8671 35.95 57.167 34.9334 57.2444 34.918Z" fill="#DD9300"/>
<path d="M57.8358 38.853C58.0561 38.7989 58.1295 38.9613 57.8512 39.0695C56.5099 39.5875 55.1686 39.7653 53.7423 40.032C53.4369 40.09 53.1818 40.059 53.2011 39.9547C53.2205 39.8503 53.4563 39.8117 53.7732 39.7498C55.0565 39.4986 57.7585 38.8724 57.8358 38.853Z" fill="#DD9300"/>
</g>
</g>
</g>
<defs>
<filter id="filter0_dd_4558_87742" x="0" y="0" width="70" height="70" filterUnits="userSpaceOnUse" color-interpolation-filters="sRGB">
<feFlood flood-opacity="0" result="BackgroundImageFix"/>
<feColorMatrix in="SourceAlpha" type="matrix" values="0 0 0 0 0 0 0 0 0 0 0 0 0 0 0 0 0 0 127 0" result="hardAlpha"/>
<feOffset dy="1"/>
<feGaussianBlur stdDeviation="1.5"/>
<feColorMatrix type="matrix" values="0 0 0 0 0 0 0 0 0 0 0 0 0 0 0 0 0 0 0.3 0"/>
<feBlend mode="normal" in2="BackgroundImageFix" result="effect1_dropShadow_4558_87742"/>
<feColorMatrix in="SourceAlpha" type="matrix" values="0 0 0 0 0 0 0 0 0 0 0 0 0 0 0 0 0 0 127 0" result="hardAlpha"/>
<feMorphology radius="3" operator="dilate" in="SourceAlpha" result="effect2_dropShadow_4558_87742"/>
<feOffset dy="4"/>
<feGaussianBlur stdDeviation="4"/>
<feColorMatrix type="matrix" values="0 0 0 0 0 0 0 0 0 0 0 0 0 0 0 0 0 0 0.15 0"/>
<feBlend mode="normal" in2="effect1_dropShadow_4558_87742" result="effect2_dropShadow_4558_87742"/>
<feBlend mode="normal" in="SourceGraphic" in2="effect2_dropShadow_4558_87742" result="shape"/>
</filter>
<clipPath id="clip0_4558_87742">
<rect x="11" y="7" width="48" height="48" rx="8" fill="white"/>
</clipPath>
<clipPath id="clip1_4558_87742">
<path d="M11 7H59V52.3333C59 53.8061 57.8061 55 56.3333 55H13.6667C12.1939 55 11 53.8061 11 52.3333V7Z" fill="white"/>
</clipPath>
</defs>
</svg>
