<svg width="300" height="300" viewBox="0 0 300 300" fill="none" xmlns="http://www.w3.org/2000/svg">
<g clip-path="url(#clip0_26822_1788)">
<g clip-path="url(#clip1_26822_1788)">
<path d="M291.836 87.1008L299.617 48.4343C299.623 48.4046 299.619 48.3714 299.602 48.3446L279.44 18.5486L279.367 18.4996L220.394 6.72775C212.773 5.20801 205.328 10.0249 203.59 17.595L192.307 66.7533C190.496 74.636 195.551 82.4567 203.484 84.0449L274.948 98.3446C282.717 99.8994 290.276 94.8664 291.841 87.1002L291.836 87.1008Z" fill="#010007"/>
<path d="M235.543 62.2645H67.8967V251.14H235.543V62.2645Z" fill="#494949"/>
<path d="M134.682 162.995C135.863 153.5 130.654 145.037 123.048 144.091C115.442 143.145 108.319 150.074 107.138 159.569C105.957 169.063 111.166 177.527 118.772 178.473C126.378 179.419 133.501 172.489 134.682 162.995Z" fill="white"/>
<path d="M153.616 169.93C159.92 165.57 160.618 155.656 155.175 147.788C149.733 139.919 140.211 137.074 133.907 141.434C127.603 145.794 126.905 155.708 132.347 163.577C137.79 171.445 147.312 174.29 153.616 169.93Z" fill="white"/>
<path d="M166.378 71.8977C166.378 71.8977 172.968 77.3101 179.557 87.8527C186.147 98.3952 196.627 116.633 195.431 132.875C195.431 132.875 240.654 141.991 243.052 142.848C245.449 143.705 250.541 146.552 244.851 151.113C239.161 155.673 210.41 179.606 210.41 179.606C210.41 179.606 225.685 212.09 226.882 214.085C228.078 216.081 230.777 223.771 220.292 221.211C209.807 218.646 134.033 190.435 134.033 190.435C134.033 190.435 52.5591 203.806 48.6732 204.969C43.4331 206.534 40.7341 202.691 45.5292 197.987C49.9606 193.637 76.2283 164.507 76.2283 164.507C76.2283 164.507 47.7736 145.131 44.7778 142.566C41.7821 140.001 35.4939 136.297 48.0703 132.593C60.6514 128.889 98.0886 118.916 98.0886 118.916C98.0886 118.916 105.578 84.1534 125.342 66.1981C128.525 63.6522 132.53 61.3552 130.434 67.0547C128.338 72.7543 125.94 94.696 136.722 104.669C147.504 114.642 157.386 114.642 160.382 92.1309C160.683 86.4314 160.53 76.8842 158.736 71.8977C158.736 71.8977 158.262 70.2515 157.764 68.9068C157.137 67.2127 156.601 65.7866 158.439 66.3417C161.731 67.3371 166.378 71.8977 166.378 71.8977Z" fill="#EBFF32"/>
<path d="M98.0935 118.753C98.0935 118.753 105.583 83.9907 125.347 66.0354C128.529 63.4895 132.535 61.1924 130.439 66.892C128.343 72.5915 125.945 94.5332 136.727 104.506C147.509 114.479 157.391 114.479 160.387 91.9681C160.688 86.2686 160.535 76.7214 158.741 71.7349C158.741 71.7349 158.267 70.0887 157.769 68.744C157.142 67.0499 156.606 65.6238 158.444 66.1789C161.736 67.1743 166.383 71.7349 166.383 71.7349C166.383 71.7349 172.973 77.1474 179.562 87.6899C186.152 98.2324 196.632 116.47 195.436 132.712C195.436 132.712 175.342 149.385 145.719 150.734C108.205 152.443 98.7731 122.524 98.0983 118.748L98.0935 118.753Z" fill="#5BB3FD"/>
<path d="M162.473 124.888C162.473 124.888 170.7 124.921 172.111 134.459C173.523 143.996 173.384 159.047 165.335 161.598C157.286 164.148 151.778 157.97 151.213 150.849C150.648 143.728 149.059 124.347 162.473 124.883V124.888Z" fill="white"/>
<path d="M156.147 161.44C152.854 159.353 150.672 155.42 150.308 150.835C149.873 145.346 148.854 132.492 154.611 126.831C156.63 124.845 159.291 123.902 162.512 124.031C163.119 124.05 171.547 124.5 173.001 134.339C174.681 145.676 173.753 159.832 165.617 162.411C164.287 162.832 162.985 163.043 161.727 163.043C159.717 163.043 157.831 162.507 156.147 161.44Z" fill="black"/>
<path d="M162.052 129.893C162.052 129.893 168.618 130.128 168.972 137.957C169.288 145.006 169.876 156.276 162.899 157.305C154.706 158.516 153.945 150.653 154.285 141.585C154.534 134.966 155.979 130.027 162.052 129.893Z" fill="#2CE69D"/>
<path d="M161.593 133.416C161.593 133.416 166.675 133.215 166.924 139.426C167.134 144.719 167.173 151.955 162.583 152.83C156.96 153.902 156.018 147.992 156.357 141.455C156.577 137.239 157.176 133.722 161.593 133.416Z" fill="black"/>
<path d="M164.88 137.622C164.88 137.622 166.799 137.684 166.991 140.115C167.182 142.551 167.311 145.045 165.392 145.595C163.473 146.145 162.129 144.743 162.066 142.977C162.004 141.211 161.554 137.316 164.88 137.622Z" fill="white"/>
<path d="M135.382 150.806C135.382 150.806 135.813 155.257 140.603 157.894C145.552 160.617 146.049 158.856 146.839 158.214C147.628 157.573 152.567 150.84 148.188 147.102C143.81 143.36 137.33 146.174 135.382 150.806Z" fill="#FF7140"/>
<path d="M145.862 160.353C146.02 160.353 146.183 160.315 146.327 160.229C148.786 158.812 151.409 154.601 151.241 150.83C151.127 148.251 149.767 146.279 147.308 145.126C141.46 142.374 136.545 146.834 134.765 149.576C134.506 149.978 134.636 150.505 135.057 150.754C135.478 151.002 136.033 150.878 136.291 150.476C136.468 150.208 140.67 143.915 146.509 146.662C148.365 147.538 149.351 148.964 149.442 150.907C149.581 153.941 147.379 157.626 145.393 158.769C144.968 159.013 144.834 159.54 145.092 159.942C145.259 160.205 145.556 160.353 145.862 160.353Z" fill="#231815"/>
<path d="M142.632 163.785C143.857 163.785 145.169 163.603 146.552 163.244C147.03 163.119 147.313 162.65 147.179 162.196C147.049 161.741 146.552 161.473 146.073 161.598C142.857 162.435 140.168 162.167 138.081 160.798C134.081 158.181 133.435 152.352 133.43 152.29C133.382 151.821 132.951 151.476 132.449 151.524C131.956 151.572 131.592 151.988 131.64 152.457C131.669 152.73 132.367 159.128 137.057 162.201C138.665 163.253 140.531 163.785 142.632 163.785Z" fill="black"/>
<path d="M167.579 168.69C168.02 168.69 168.402 168.383 168.465 167.958C169.493 161.253 171.824 156.673 175.394 154.352C178.787 152.141 182.166 152.845 182.199 152.854C182.682 152.965 183.166 152.673 183.276 152.218C183.391 151.759 183.094 151.299 182.611 151.194C182.443 151.156 178.476 150.299 174.418 152.921C170.398 155.515 167.795 160.497 166.689 167.718C166.617 168.187 166.957 168.618 167.45 168.69C167.493 168.695 167.536 168.699 167.579 168.699V168.69Z" fill="black"/>
<path d="M111.909 146.571C111.345 139.45 109.88 123.782 123.294 124.318C123.294 124.318 131.52 124.352 132.932 133.889C134.344 143.427 134.205 158.478 126.156 161.028C126.156 161.028 125.141 161.564 121.715 161.564C121.715 161.564 122.045 148.567 112.694 146.676L111.909 146.571Z" fill="white"/>
<path d="M120.815 161.545C120.815 161.421 121.03 149.237 112.565 147.523L111.062 147.318L110.981 146.289C110.56 141.02 109.775 131.21 114.714 126.352C116.81 124.29 119.7 123.318 123.294 123.462C123.385 123.462 132.315 123.615 133.817 133.77C135.492 145.078 134.573 159.195 126.491 161.823C126.117 161.99 124.84 162.421 121.71 162.421H120.791L120.815 161.545ZM125.715 160.282L125.869 160.219C133.449 157.817 133.315 142.613 132.042 134.009C130.759 125.352 123.591 125.175 123.256 125.17C120.126 125.046 117.757 125.821 116.006 127.539C111.727 131.75 112.345 140.747 112.747 145.82L112.881 145.839C121.471 147.576 122.49 157.602 122.6 160.693C124.911 160.621 125.715 160.277 125.715 160.277V160.282Z" fill="black"/>
<path d="M123.715 156.731C130.692 155.702 130.104 144.432 129.788 137.383C129.434 129.559 122.868 129.319 122.868 129.319C116.795 129.453 115.484 134.502 115.24 141.116L115.403 145.815C115.403 145.815 118.322 147.916 120.121 150.194C120.121 150.194 122.217 152.936 122.667 154.218C123.117 155.501 123.715 156.721 123.715 156.721V156.731Z" fill="#2CE69D"/>
<path d="M109.828 148.117C107.693 148.222 105.08 149.897 104.157 150.734C101.912 152.764 101.802 155.472 102.247 158.162C102.692 160.851 104.583 163.67 107.076 165C108.818 165.933 111.737 166.551 113.981 165.962C116.345 165.345 118.977 163.488 119.485 161.205C119.992 158.922 119.303 154.558 117.968 152.606C117.968 152.606 115.546 147.83 109.823 148.117H109.828Z" fill="#FF7140"/>
<path d="M111.962 149.347C111.962 149.347 114.096 149.773 114.604 151.538C115.111 153.299 114.125 155.223 111.938 154.639C109.746 154.051 108.626 152.955 108.373 151.835C108.172 150.94 109.253 148.854 111.967 149.351L111.962 149.347Z" fill="white"/>
<path d="M117.776 97.371C118.949 102.649 126.199 119.384 144.508 117.781C162.818 116.178 160.43 91.5949 160.43 91.5949C157.434 114.106 147.542 114.436 136.761 104.463C125.979 94.4902 128.376 72.5485 130.472 66.8489C132.568 61.1494 128.563 63.4464 125.381 65.9923C125.381 65.9923 112.876 75.2523 117.781 97.371H117.776Z" fill="#EBFF32"/>
<path d="M145.671 116.197C151.71 116.197 157.147 112.675 159.291 109.215C159.544 108.808 159.401 108.282 158.975 108.043C158.549 107.803 157.999 107.937 157.745 108.344C156.06 111.058 150.997 114.747 145.049 114.475C138.952 114.192 133.664 109.833 129.754 101.865C120.183 82.3445 130.879 64.7959 130.984 64.6237C131.238 64.2169 131.099 63.6953 130.668 63.4512C130.242 63.2071 129.692 63.3459 129.438 63.7479C129.324 63.9298 118.154 82.2583 128.122 102.587C133.439 113.426 140.211 115.963 144.958 116.183C145.197 116.193 145.432 116.197 145.666 116.197H145.671Z" fill="#5BB3FD"/>
<path d="M139.349 119.466C139.747 119.466 140.11 119.212 140.216 118.829C140.34 118.375 140.058 117.906 139.579 117.786C119.279 112.666 120.016 91.7432 122.265 79.722C124.548 67.4997 130.132 65.1405 130.19 65.1165C130.649 64.9347 130.865 64.4322 130.668 63.9967C130.477 63.5612 129.951 63.3555 129.491 63.5373C129.223 63.6426 122.949 66.289 120.494 79.4205C118.14 92.016 117.432 113.962 139.12 119.432C139.196 119.451 139.273 119.461 139.349 119.461V119.466Z" fill="#5BB3FD"/>
<path d="M123.586 133.416C123.586 133.416 128.501 133.224 128.74 139.125C128.946 144.154 129.19 151.089 124.543 151.854C119.403 152.701 118.197 147.26 118.528 141.053C118.743 137.048 119.322 133.708 123.586 133.416Z" fill="black"/>
<path d="M126.697 137.622C126.697 137.622 128.616 137.684 128.807 140.115C128.998 142.551 129.128 145.045 127.209 145.595C125.29 146.14 123.945 144.743 123.883 142.977C123.82 141.211 123.371 137.316 126.697 137.622Z" fill="white"/>
<path d="M231.964 197.307C235.016 197.307 237.491 194.953 237.491 192.048C237.491 189.143 235.016 186.789 231.964 186.789C228.911 186.789 226.437 189.143 226.437 192.048C226.437 194.953 228.911 197.307 231.964 197.307Z" fill="#5BB3FD"/>
<path d="M150.82 151.806C150.839 152.07 150.863 152.347 150.882 152.591C151.294 157.76 153.735 162.229 157.41 164.555C160.339 166.407 163.885 166.756 167.665 165.555C173.992 163.55 176.164 154.668 176.475 145.619C176.648 140.608 176.26 135.55 175.671 131.573C174.011 120.37 164.746 120.121 164.32 120.117H164.277C160.741 119.968 157.97 120.94 155.802 123.074C149.303 129.468 150.255 144.532 150.82 151.806Z" fill="white"/>
<path d="M149.686 152.218C149.677 152.132 149.653 152.055 149.643 151.974C149.653 151.974 149.657 151.974 149.667 151.974C149.672 152.055 149.681 152.141 149.686 152.223V152.218Z" fill="black"/>
<path opacity="0.47" d="M149.686 152.218C149.677 152.132 149.653 152.055 149.643 151.974C149.653 151.974 149.657 151.974 149.667 151.974C149.672 152.055 149.681 152.141 149.686 152.223V152.218Z" fill="white"/>
<path d="M170.106 138.34C170.13 138.484 170.168 138.598 170.183 138.756C170.307 140.35 170.412 141.958 170.163 143.255C170.206 141.58 170.163 139.905 170.106 138.34Z" fill="white"/>
<path d="M159.329 152.137C160.257 158.607 163.033 162.875 170.168 161.823C176.016 160.961 177.758 154.549 178.15 147.657C178.366 143.886 178.184 139.972 178.04 136.742C177.581 126.596 169.067 126.29 169.067 126.29C161.195 126.462 159.319 132.865 158.999 141.446C158.855 145.303 158.874 148.983 159.329 152.141V152.137Z" fill="#2CE69D"/>
<path d="M162.918 141.417C163.205 135.952 163.98 131.391 169.704 130.994C169.704 130.994 176.294 130.731 176.614 138.79C176.619 138.943 176.624 139.106 176.633 139.264C176.198 136.545 173.973 136.445 173.973 136.445C169.661 136.053 170.24 141.101 170.321 143.389C170.403 145.676 172.145 147.49 174.633 146.782C175.868 146.428 176.447 145.456 176.686 144.178C176.648 145.753 176.523 147.313 176.279 148.777C175.657 152.515 174.202 155.554 170.982 156.166C167.038 156.917 164.88 155.008 163.789 151.763C162.865 149.012 162.707 145.308 162.913 141.417H162.918Z" fill="black"/>
<path d="M174.638 146.782C172.149 147.49 170.407 145.676 170.326 143.389C170.245 141.101 169.661 136.052 173.977 136.445C173.977 136.445 176.203 136.55 176.638 139.264C176.696 140.828 176.739 142.503 176.696 144.178C176.452 145.456 175.873 146.427 174.643 146.782H174.638Z" fill="white"/>
<path d="M130.381 152.184L130.386 152.175C134.176 152.582 138.234 152.725 142.589 152.524C144.202 152.452 145.757 152.295 147.327 152.156C147.351 152.357 147.418 152.534 147.427 152.744C147.604 156.678 144.752 161.454 142.178 162.938C141.886 163.105 141.709 163.378 141.646 163.675C140.536 163.78 138.852 163.397 135.961 161.808C129.984 158.521 129.247 153.108 129.199 152.697C129.649 152.764 130.118 152.577 130.372 152.184H130.381Z" fill="#FF7140"/>
<path d="M143.628 147.241C145.834 148.28 147.044 149.95 147.327 152.156C145.757 152.295 144.202 152.452 142.589 152.524C138.229 152.725 134.176 152.582 130.386 152.175C130.659 151.763 136.086 143.69 143.628 147.236V147.241Z" fill="#FF7140"/>
<path d="M144.049 162.224C144.81 161.607 148.542 156.611 148.069 152.098C148.212 152.084 148.36 152.079 148.504 152.065C148.518 152.261 148.538 152.476 148.552 152.658C148.657 154.008 148.901 155.305 149.241 156.554C148.193 160.162 145.743 163.483 143.393 164.837C143.206 164.947 142.996 165 142.79 165C142.398 165 142.01 164.809 141.795 164.464C141.637 164.22 141.603 163.938 141.656 163.679C143.01 163.55 143.494 162.684 144.053 162.229L144.049 162.224Z" fill="#231815"/>
<path d="M129.194 152.62C129.194 152.62 129.204 152.682 129.204 152.697C129.056 152.673 128.907 152.625 128.773 152.543C128.52 152.39 128.352 152.161 128.276 151.907C128.673 151.96 129.056 152.027 129.458 152.074C129.367 152.256 129.266 152.433 129.19 152.62H129.194Z" fill="#231815"/>
<path d="M128.28 151.907C128.194 151.615 128.218 151.299 128.4 151.022C130.707 147.466 137.081 141.685 144.661 145.255C146.197 145.978 147.384 146.959 148.236 148.141C148.317 149.615 148.413 150.935 148.504 152.065C148.361 152.079 148.212 152.084 148.069 152.098C147.906 150.548 147.25 149.055 145.8 147.815C140.297 143.116 132.257 146.404 129.467 152.074" fill="#231815"/>
<path d="M148.504 152.065C148.877 152.027 149.27 152.017 149.643 151.974C149.653 152.055 149.677 152.132 149.686 152.218C149.696 152.362 149.71 152.539 149.72 152.677C149.724 152.754 149.744 152.831 149.748 152.912C149.772 154.118 149.59 155.348 149.241 156.554C148.901 155.309 148.657 154.013 148.552 152.658C148.538 152.476 148.523 152.261 148.504 152.065Z" fill="#231815"/>
<path d="M148.504 152.065C148.413 150.931 148.317 149.61 148.236 148.141C149.026 149.237 149.471 150.538 149.643 151.979C149.27 152.022 148.877 152.031 148.504 152.07V152.065Z" fill="#231815"/>
<path d="M149.748 152.912C149.739 152.835 149.724 152.759 149.72 152.677C149.71 152.539 149.696 152.366 149.686 152.218C149.7 152.366 149.753 152.496 149.763 152.649C149.763 152.735 149.748 152.821 149.753 152.907L149.748 152.912Z" fill="#231815"/>
<path d="M129.462 152.074C129.769 152.113 130.075 152.141 130.386 152.175L130.381 152.184C130.128 152.577 129.659 152.764 129.209 152.697C129.209 152.682 129.199 152.62 129.199 152.62C129.276 152.433 129.376 152.256 129.467 152.074H129.462Z" fill="#231815"/>
<path d="M142.182 162.938C144.757 161.454 147.609 156.678 147.432 152.744C147.422 152.534 147.355 152.357 147.332 152.156C147.576 152.132 147.824 152.122 148.069 152.098C148.547 156.611 144.81 161.607 144.049 162.225C143.489 162.679 143.005 163.545 141.651 163.675C141.713 163.378 141.89 163.105 142.182 162.938Z" fill="#231815"/>
<path d="M143.628 147.241C136.086 143.695 130.654 151.768 130.386 152.18C130.075 152.146 129.769 152.113 129.462 152.079C132.252 146.408 140.292 143.121 145.795 147.82C147.245 149.06 147.901 150.553 148.064 152.103C147.82 152.127 147.571 152.137 147.327 152.161C147.044 149.954 145.834 148.279 143.628 147.246V147.241Z" fill="#231815"/>
<path d="M176.863 157.831C177.772 156.889 178.744 156.037 179.811 155.348C185.07 151.95 190.215 153.06 190.43 153.108C191.057 153.247 191.44 153.845 191.291 154.438C191.143 155.032 190.521 155.41 189.894 155.266C189.851 155.257 185.468 154.348 181.074 157.209C176.452 160.219 173.427 166.158 172.092 174.854C172.006 175.404 171.508 175.801 170.943 175.801C170.886 175.801 170.829 175.801 170.771 175.792C170.135 175.705 169.694 175.141 169.785 174.533C170.302 171.164 171.082 168.187 172.092 165.579C174.236 163.746 175.786 161.052 176.858 157.831H176.863Z" fill="black"/>
<path d="M176.863 157.831C175.786 161.047 174.241 163.746 172.097 165.579C173.327 162.421 174.925 159.846 176.863 157.831Z" fill="black"/>
<path d="M149.686 152.218C149.701 152.366 149.753 152.496 149.763 152.649C149.763 152.735 149.748 152.821 149.753 152.907C149.777 154.113 149.595 155.343 149.246 156.549C150.399 160.784 152.825 164.316 156.123 166.402C158.305 167.785 160.755 168.479 163.358 168.479C164.986 168.479 166.675 168.206 168.402 167.661C169.795 167.221 171.02 166.498 172.102 165.574C173.331 162.416 174.93 159.841 176.868 157.827C178.146 154.008 178.749 149.471 178.854 144.733C178.954 140.245 178.615 135.598 177.973 131.262C176.083 118.509 165.163 117.925 164.373 117.896C160.195 117.729 156.75 118.949 154.127 121.528C147.968 127.587 147.796 139.977 148.241 148.131C149.031 149.227 149.476 150.529 149.648 151.969C149.657 151.969 149.662 151.969 149.672 151.969C149.677 152.051 149.686 152.137 149.691 152.218H149.686ZM150.883 152.591C150.863 152.347 150.844 152.07 150.82 151.806C150.251 144.537 149.303 129.468 155.802 123.074C157.97 120.945 160.736 119.973 164.277 120.117H164.32C164.746 120.121 174.011 120.37 175.672 131.573C176.26 135.545 176.648 140.608 176.476 145.619C176.164 154.668 173.992 163.55 167.665 165.555C163.885 166.752 160.344 166.407 157.41 164.555C153.735 162.229 151.294 157.755 150.883 152.591Z" fill="black"/>
<path d="M282.384 66.8011L54.5644 24.6741C47.678 23.4012 41.0644 27.9522 39.7915 34.8338L2.43564 236.85C1.16269 243.736 5.71373 250.35 12.5953 251.623L240.41 293.75C247.297 295.023 253.91 290.472 255.183 283.59L292.539 81.574C293.812 74.6877 289.261 68.0741 282.38 66.8011H282.384ZM131.932 240.444L131.597 239.97L57.6224 135.574L57.6128 135.564L144.566 68.6053L235.371 146.207L235.802 146.576L131.932 240.449V240.444Z" fill="#010007"/>
<path d="M235.807 146.571L144.571 68.5957L172.489 61.5945C177.83 60.2546 183.419 62.5133 186.334 67.184L235.811 146.571H235.807Z" fill="#D3D3D3"/>
<path d="M144.566 68.5957L57.6223 135.569L78.559 78.497C80.344 73.6301 84.9094 70.3424 90.0873 70.1893L144.566 68.5957Z" fill="#D3D3D3"/>
<path d="M210.166 215.957L132.205 240.2L236.075 146.327L218.584 207.343C217.406 211.449 214.243 214.688 210.161 215.957H210.166Z" fill="#D3D3D3"/>
<path d="M64.4989 68.1602C64.4607 68.2129 64.3984 68.299 64.3027 68.4282C64.3314 68.39 64.365 68.3469 64.3985 68.299C64.4319 68.2512 64.4607 68.2033 64.4942 68.1555L64.4989 68.1602Z" fill="#2CE69D"/>
<path d="M53.277 73.9699C53.2339 73.9125 53.1908 73.8503 53.1525 73.7928C53.1382 73.7785 53.1286 73.7641 53.1143 73.7498C53.454 74.3144 53.4014 74.1661 53.277 73.9699Z" fill="#2CE69D"/>
<path d="M51.5686 72.2088C51.5686 72.2088 51.5638 72.204 51.559 72.1993C51.5495 72.1897 51.5351 72.1801 51.5208 72.1705C51.4442 72.1179 51.3724 72.0653 51.2958 72.0126C51.1619 71.9265 51.1284 71.9169 51.5638 72.2088H51.5686Z" fill="#2CE69D"/>
<path d="M61.6899 71.0268C61.6899 71.0268 61.7186 71.0029 61.733 70.9885C61.8574 70.8785 61.8813 70.8354 61.4602 71.2039C61.4841 71.1847 61.5129 71.1656 61.5416 71.1464C61.5942 71.1082 61.6421 71.0651 61.6899 71.0268Z" fill="#2CE69D"/>
<path d="M46.7257 71.0842C46.7257 71.0842 46.6922 71.1034 46.6778 71.1129C46.6491 71.1417 46.6156 71.1656 46.5869 71.1943C46.5439 71.2326 46.5056 71.2757 46.4673 71.3187C46.4673 71.3187 46.4673 71.3187 46.4673 71.3235C46.5199 71.2804 46.6061 71.2039 46.7257 71.0842Z" fill="#2CE69D"/>
<path d="M52.5711 205.335L50.778 199.711C49.3578 195.254 44.6335 192.77 40.1703 194.095L34.1804 175.318C38.5876 173.814 41.0007 169.055 39.5798 164.596L37.7868 158.971C36.3461 154.459 31.5226 151.966 27.0071 153.407C26.0525 153.712 25.5247 154.734 25.8295 155.689L27.9886 162.456C28.2934 163.411 27.7656 164.433 26.8109 164.738L21.194 166.529C20.2394 166.833 19.2173 166.306 18.9125 165.351L16.7533 158.584C16.4485 157.629 15.4264 157.101 14.4718 157.406C9.95879 158.847 7.46608 163.67 8.90747 168.186L10.7005 173.81C12.1207 178.267 16.845 180.751 21.3082 179.426L27.2981 198.203C22.891 199.707 20.4779 204.466 21.8987 208.925L23.6918 214.549C25.1325 219.062 29.9584 221.554 34.4714 220.114C35.4261 219.809 35.9539 218.787 35.6491 217.832L33.4899 211.065C33.1851 210.11 33.7129 209.088 34.6676 208.783L40.2845 206.992C41.2392 206.687 42.2613 207.215 42.5661 208.17L44.7252 214.937C45.03 215.892 46.0521 216.42 47.0068 216.115C51.5197 214.674 54.0124 209.851 52.5711 205.335ZM34.7182 195.828L32.6822 196.477C31.4867 196.857 30.2088 196.199 29.8285 195.004L25.5134 181.471C25.1331 180.275 25.7915 178.997 26.987 178.617L29.023 177.968C30.2186 177.588 31.4965 178.246 31.8768 179.442L36.1918 192.974C36.5721 194.17 35.9138 195.448 34.7182 195.828Z" fill="#5BB3FD"/>
<path d="M29.0228 177.964L26.9866 178.614C25.7908 178.995 25.1307 180.274 25.5121 181.469L29.8286 195.002C30.21 196.198 31.4885 196.858 32.6842 196.476L34.7204 195.827C35.9161 195.445 36.5763 194.167 36.1949 192.971L31.8784 179.439C31.497 178.243 30.2185 177.583 29.0228 177.964Z" fill="#1A3CFF"/>
<path d="M13.134 168.526C14.4473 168.173 15.2261 166.823 14.8734 165.509C14.5208 164.196 13.1702 163.417 11.8568 163.77C10.5435 164.123 9.76466 165.473 10.1173 166.787C10.47 168.1 11.8206 168.879 13.134 168.526Z" fill="black"/>
<path d="M15.2568 174.326C16.5701 173.973 17.3489 172.623 16.9963 171.309C16.6436 169.996 15.293 169.217 13.9796 169.57C12.6663 169.922 11.8875 171.273 12.2401 172.586C12.5928 173.9 13.9434 174.679 15.2568 174.326Z" fill="black"/>
<path d="M20.2147 169.6C21.8138 169.17 22.762 167.526 22.3326 165.927C21.9032 164.328 20.2588 163.379 18.6598 163.809C17.0607 164.238 16.1125 165.883 16.5419 167.482C16.9713 169.081 18.6157 170.029 20.2147 169.6Z" fill="#FF7140"/>
<path d="M10.3236 176.146C10.2457 176.167 10.1632 176.17 10.0802 176.152C9.80041 176.093 9.62088 175.815 9.68035 175.535L10.7548 170.543L6.18659 167.277C5.95349 167.111 5.89866 166.786 6.06742 166.552C6.23366 166.319 6.55816 166.264 6.79193 166.433L11.9164 170.097L10.6984 175.757C10.657 175.954 10.5082 176.102 10.3249 176.151L10.3236 176.146Z" fill="black"/>
<path d="M268.881 61.7878C268.881 44.939 255.055 31.3603 238.259 32.0233C223.197 32.6189 210.865 44.8903 210.045 60.1171C209.359 72.8343 216.566 83.9295 227.156 88.859C228.688 89.5708 229.688 91.1065 229.688 92.8147V93.8523C229.688 95.5529 231.052 96.9313 232.73 96.9313H246.151C247.833 96.9313 249.193 95.5529 249.193 93.8523V92.8147C249.193 91.1253 250.159 89.5857 251.68 88.8815C261.831 84.1805 268.885 73.8232 268.885 61.7915L268.881 61.7878Z" fill="#FFC20B"/>
<path d="M247.784 106H231.093C228.463 106 226.332 103.842 226.332 101.183C226.332 98.5233 228.463 96.3657 231.093 96.3657H247.784C250.414 96.3657 252.545 98.5233 252.545 101.183C252.545 103.842 250.414 106 247.784 106Z" fill="#FF1D46"/>
<path d="M231.097 94.6688C230.61 94.6688 230.194 94.2905 230.149 93.7923L227.002 57.8733C226.969 57.5025 227.152 57.1466 227.471 56.9593C227.789 56.7721 228.186 56.7833 228.489 56.9931C228.527 57.0193 230.868 58.6075 234.101 59.5065C234.34 57.1579 235.711 55.1539 237.854 54.12C240.139 53.0187 242.409 53.1161 243.93 54.3822C245.117 55.3711 245.627 56.8919 245.256 58.3453C244.806 60.1021 243.211 61.3607 240.87 61.8027C239.263 62.1061 237.686 62.0987 236.206 61.9076C236.734 63.7056 238.105 65.1702 239.941 65.8108C242.578 66.7248 244.679 66.0018 245.979 65.2339C247.923 64.0839 249.414 62.0574 249.781 60.0684C249.875 59.544 250.369 59.1994 250.89 59.2968C251.407 59.3941 251.747 59.8961 251.654 60.4205C251.193 62.9377 249.343 65.4812 246.942 66.9008C245.297 67.871 242.638 68.7887 239.322 67.6388C236.584 66.6873 234.633 64.3424 234.168 61.533C232.059 61.0161 230.273 60.207 229.063 59.5665L232.048 93.6274C232.093 94.1556 231.707 94.6238 231.183 94.6725C231.153 94.6725 231.127 94.6763 231.097 94.6763V94.6688ZM235.974 59.9223C237.416 60.1546 238.963 60.2033 240.517 59.9111C242.098 59.6114 243.151 58.8697 243.409 57.8658C243.593 57.1429 243.327 56.3787 242.716 55.8693C241.769 55.0789 240.296 55.0752 238.671 55.8581C237.056 56.6372 236.079 58.1281 235.974 59.9223Z" fill="#FFFFD3"/>
<path d="M247.788 94.6689C247.758 94.6689 247.732 94.6689 247.702 94.6652C247.177 94.6165 246.791 94.152 246.836 93.6201L249.983 57.7012C250.028 57.1693 250.489 56.7834 251.017 56.8284C251.541 56.8771 251.927 57.3416 251.882 57.8735L248.735 93.7924C248.691 94.2944 248.275 94.6689 247.788 94.6689Z" fill="#FFFFD3"/>
<path d="M250.931 98.2873H227.95C225.32 98.2873 223.189 96.1297 223.189 93.4702C223.189 90.8106 225.32 88.653 227.95 88.653H250.931C253.56 88.653 255.692 90.8106 255.692 93.4702C255.692 96.1297 253.56 98.2873 250.931 98.2873Z" fill="#FF1D46"/>
<path d="M57.536 135.512L131.932 240.439L87.6131 235.123C82.2341 234.477 77.8602 230.485 76.726 225.188L57.5312 135.512H57.536Z" fill="#D3D3D3"/>
<path d="M75.5153 149.332L80.6119 136.024C82.6361 130.741 78.3722 125.223 72.7397 125.773C63.3744 126.687 54.5451 128.544 46.5533 131.344C40.8441 133.344 38.4131 141.896 43.0981 143.509C48.9795 145.533 56.3205 148.605 64.7766 153.252C68.806 155.468 73.8691 153.625 75.5153 149.332Z" fill="#EBFF32"/>
<path d="M174.139 259.69L192.58 244.515L193.797 253.024L209.591 240H167.221C162.684 240 159.004 243.679 159.004 248.216V260.423L174.139 248.817V259.686V259.69Z" fill="#CE2146"/>
<path d="M239.751 280.784V248.216C239.751 243.679 236.071 240 231.534 240H209.587L193.792 250.213L192.576 244.519L174.135 256.055V248.821L159 260.427V280.788C159 280.81 159 280.828 159 280.85H239.743C239.743 280.828 239.743 280.81 239.743 280.788L239.751 280.784Z" fill="#FF1D46"/>
<path d="M159.004 280.846C159.037 285.354 162.701 289 167.216 289H231.534C236.049 289 239.714 285.354 239.747 280.846H159.004Z" fill="#FFD100"/>
<path d="M217.861 257.11C214.794 257.11 211.892 255.619 210.1 253.123C209.865 252.793 209.938 252.335 210.268 252.101C210.598 251.866 211.056 251.939 211.291 252.269C212.808 254.384 215.263 255.648 217.861 255.648C220.46 255.648 222.801 254.461 224.344 252.39C224.586 252.068 225.044 251.998 225.37 252.24C225.696 252.482 225.762 252.94 225.52 253.266C223.725 255.674 220.863 257.114 217.865 257.114L217.861 257.11Z" fill="black"/>
<path d="M212.163 254.684C212.013 255.351 211.929 256.051 211.929 256.78C211.929 260.965 214.585 264.355 217.865 264.355C221.145 264.355 223.802 260.965 223.802 256.78C223.802 256.051 223.718 255.351 223.568 254.684C222.032 255.989 220.042 256.78 217.869 256.78C215.696 256.78 213.706 255.992 212.17 254.684H212.163Z" fill="#CE2146"/>
<path d="M217.862 265.088C214.186 265.088 211.192 261.361 211.192 256.78C211.192 256.029 211.276 255.271 211.445 254.523C211.5 254.274 211.683 254.068 211.928 253.988C212.17 253.907 212.442 253.959 212.636 254.123C214.094 255.362 215.949 256.044 217.862 256.044C219.775 256.044 221.629 255.362 223.087 254.123C223.282 253.959 223.553 253.907 223.795 253.988C224.036 254.068 224.22 254.27 224.278 254.523C224.447 255.271 224.531 256.029 224.531 256.78C224.531 261.361 221.541 265.088 217.862 265.088ZM212.698 255.992C212.672 256.256 212.661 256.52 212.661 256.78C212.661 260.551 214.996 263.622 217.865 263.622C220.735 263.622 223.069 260.551 223.069 256.78C223.069 256.52 223.058 256.256 223.032 255.992C221.501 256.982 219.705 257.513 217.865 257.513C216.026 257.513 214.23 256.978 212.698 255.992Z" fill="black"/>
<path d="M217.598 262.351C217.195 262.351 216.865 262.021 216.865 261.618V256.78C216.865 256.377 217.195 256.047 217.598 256.047C218.001 256.047 218.331 256.377 218.331 256.78V261.618C218.331 262.021 218.001 262.351 217.598 262.351Z" fill="black"/>
<path d="M222.167 248.663C223.693 248.663 224.93 247.426 224.93 245.9C224.93 244.374 223.693 243.137 222.167 243.137C220.641 243.137 219.404 244.374 219.404 245.9C219.404 247.426 220.641 248.663 222.167 248.663Z" fill="black"/>
<path d="M213.119 248.663C214.646 248.663 215.883 247.426 215.883 245.9C215.883 244.374 214.646 243.137 213.119 243.137C211.593 243.137 210.356 244.374 210.356 245.9C210.356 247.426 211.593 248.663 213.119 248.663Z" fill="black"/>
<path d="M218.506 249.14H217.216C216.48 249.14 215.883 249.737 215.883 250.474V251.763C215.883 252.5 216.48 253.097 217.216 253.097H218.506C219.243 253.097 219.84 252.5 219.84 251.763V250.474C219.84 249.737 219.243 249.14 218.506 249.14Z" fill="#2CE69D"/>
<path d="M192.11 255.205H192.107C191.457 255.205 190.93 255.731 190.93 256.381V257.986C190.93 258.636 191.457 259.162 192.107 259.162H192.11C192.76 259.162 193.287 258.636 193.287 257.986V256.381C193.287 255.731 192.76 255.205 192.11 255.205Z" fill="#2CE69D"/>
<path d="M196.955 255.205H196.951C196.301 255.205 195.775 255.731 195.775 256.381V257.986C195.775 258.636 196.301 259.162 196.951 259.162H196.955C197.604 259.162 198.131 258.636 198.131 257.986V256.381C198.131 255.731 197.604 255.205 196.955 255.205Z" fill="#2CE69D"/>
<path d="M201.8 255.205H201.796C201.146 255.205 200.62 255.731 200.62 256.381V257.986C200.62 258.636 201.146 259.162 201.796 259.162H201.8C202.449 259.162 202.976 258.636 202.976 257.986V256.381C202.976 255.731 202.449 255.205 201.8 255.205Z" fill="#2CE69D"/>
<path d="M206.644 255.205H206.64C205.991 255.205 205.464 255.731 205.464 256.381V257.986C205.464 258.636 205.991 259.162 206.64 259.162H206.644C207.294 259.162 207.82 258.636 207.82 257.986V256.381C207.82 255.731 207.294 255.205 206.644 255.205Z" fill="#2CE69D"/>
<path d="M192.11 260.969H192.107C191.457 260.969 190.93 261.496 190.93 262.145V263.751C190.93 264.4 191.457 264.927 192.107 264.927H192.11C192.76 264.927 193.287 264.4 193.287 263.751V262.145C193.287 261.496 192.76 260.969 192.11 260.969Z" fill="#2CE69D"/>
<path d="M196.955 260.969H196.951C196.301 260.969 195.775 261.496 195.775 262.145V263.751C195.775 264.4 196.301 264.927 196.951 264.927H196.955C197.604 264.927 198.131 264.4 198.131 263.751V262.145C198.131 261.496 197.604 260.969 196.955 260.969Z" fill="#2CE69D"/>
<path d="M201.8 260.969H201.796C201.146 260.969 200.62 261.496 200.62 262.145V263.751C200.62 264.4 201.146 264.927 201.796 264.927H201.8C202.449 264.927 202.976 264.4 202.976 263.751V262.145C202.976 261.496 202.449 260.969 201.8 260.969Z" fill="#2CE69D"/>
<path d="M206.644 260.969H206.64C205.991 260.969 205.464 261.496 205.464 262.145V263.751C205.464 264.4 205.991 264.927 206.64 264.927H206.644C207.294 264.927 207.82 264.4 207.82 263.751V262.145C207.82 261.496 207.294 260.969 206.644 260.969Z" fill="#2CE69D"/>
<path d="M192.11 266.737H192.107C191.457 266.737 190.93 267.264 190.93 267.914V269.519C190.93 270.168 191.457 270.695 192.107 270.695H192.11C192.76 270.695 193.287 270.168 193.287 269.519V267.914C193.287 267.264 192.76 266.737 192.11 266.737Z" fill="#2CE69D"/>
<path d="M196.955 266.737H196.951C196.301 266.737 195.775 267.264 195.775 267.914V269.519C195.775 270.168 196.301 270.695 196.951 270.695H196.955C197.604 270.695 198.131 270.168 198.131 269.519V267.914C198.131 267.264 197.604 266.737 196.955 266.737Z" fill="#2CE69D"/>
<path d="M201.8 266.737H201.796C201.146 266.737 200.62 267.264 200.62 267.914V269.519C200.62 270.168 201.146 270.695 201.796 270.695H201.8C202.449 270.695 202.976 270.168 202.976 269.519V267.914C202.976 267.264 202.449 266.737 201.8 266.737Z" fill="#2CE69D"/>
<path d="M206.644 266.737H206.64C205.991 266.737 205.464 267.264 205.464 267.914V269.519C205.464 270.168 205.991 270.695 206.64 270.695H206.644C207.294 270.695 207.82 270.168 207.82 269.519V267.914C207.82 267.264 207.294 266.737 206.644 266.737Z" fill="#2CE69D"/>
<path d="M169.818 284.335C166.428 284.335 163.669 281.575 163.669 278.186C163.669 274.796 166.428 272.036 169.818 272.036C173.208 272.036 175.967 274.796 175.967 278.186C175.967 281.575 173.208 284.335 169.818 284.335ZM169.818 273.506C167.238 273.506 165.135 275.606 165.135 278.189C165.135 280.773 167.235 282.873 169.818 282.873C172.402 282.873 174.502 280.773 174.502 278.189C174.502 275.606 172.402 273.506 169.818 273.506Z" fill="#FFD100"/>
<path d="M185.862 284.335C182.472 284.335 179.713 281.575 179.713 278.186C179.713 274.796 182.472 272.036 185.862 272.036C189.252 272.036 192.011 274.796 192.011 278.186C192.011 281.575 189.252 284.335 185.862 284.335ZM185.862 273.506C183.282 273.506 181.179 275.606 181.179 278.189C181.179 280.773 183.278 282.873 185.862 282.873C188.446 282.873 190.545 280.773 190.545 278.189C190.545 275.606 188.446 273.506 185.862 273.506Z" fill="#FFD100"/>
<path d="M212.562 284.335C209.173 284.335 206.413 281.575 206.413 278.186C206.413 274.796 209.173 272.036 212.562 272.036C215.952 272.036 218.712 274.796 218.712 278.186C218.712 281.575 215.952 284.335 212.562 284.335ZM212.562 273.506C209.983 273.506 207.879 275.606 207.879 278.189C207.879 280.773 209.979 282.873 212.562 282.873C215.146 282.873 217.246 280.773 217.246 278.189C217.246 275.606 215.146 273.506 212.562 273.506Z" fill="#FFD100"/>
<path d="M228.606 284.335C225.217 284.335 222.457 281.575 222.457 278.186C222.457 274.796 225.217 272.036 228.606 272.036C231.996 272.036 234.756 274.796 234.756 278.186C234.756 281.575 231.996 284.335 228.606 284.335ZM228.606 273.506C226.026 273.506 223.923 275.606 223.923 278.189C223.923 280.773 226.023 282.873 228.606 282.873C231.19 282.873 233.29 280.773 233.29 278.189C233.29 275.606 231.19 273.506 228.606 273.506Z" fill="#FFD100"/>
<path d="M234.158 259.166H228.298C227.327 259.166 226.543 259.954 226.543 260.922V267.02C226.543 267.991 227.331 268.775 228.298 268.775H234.158C235.129 268.775 235.914 267.987 235.914 267.02V260.922C235.914 259.95 235.126 259.166 234.158 259.166ZM231.23 266.532C229.816 266.532 228.669 265.385 228.669 263.971C228.669 262.556 229.816 261.409 231.23 261.409C232.645 261.409 233.792 262.556 233.792 263.971C233.792 265.385 232.645 266.532 231.23 266.532Z" fill="white"/>
<path d="M172.017 259.166H166.157C165.186 259.166 164.402 259.954 164.402 260.922V267.02C164.402 267.991 165.19 268.775 166.157 268.775H172.017C172.988 268.775 173.772 267.987 173.772 267.02V260.922C173.772 259.95 172.984 259.166 172.017 259.166ZM169.089 266.532C167.674 266.532 166.527 265.385 166.527 263.971C166.527 262.556 167.674 261.409 169.089 261.409C170.503 261.409 171.65 262.556 171.65 263.971C171.65 265.385 170.503 266.532 169.089 266.532Z" fill="white"/>
<path d="M284.011 45.0484L299.854 48.237L279.639 18.3559L276.532 33.794C275.492 38.9661 278.838 44.0045 284.01 45.0436L284.011 45.0484Z" fill="#D3D3D3"/>
<path d="M246.861 164.986C244.315 163.861 241.535 163.411 238.793 162.966C230.495 161.622 222.685 160.349 214.387 159.009C213.262 158.827 212.104 158.578 210.994 158.822C209.328 159.191 207.897 160.933 207.39 161.952C206.481 163.775 208.075 167.426 209.443 168.939C212.496 172.317 216.181 172.384 220.383 174.136C225.575 176.304 231.437 176.414 236.974 175.433C241.54 174.619 245.938 173.097 250.269 171.47C252.647 170.575 253.035 170.145 251.24 168.087C250.058 166.733 248.507 165.704 246.866 164.981L246.861 164.986Z" fill="#FFC20B"/>
<path d="M208.41 180.786L213.621 173.534L204.041 166.65L198.83 173.902L208.41 180.786Z" fill="#698E8B"/>
<path d="M141.924 163.655C141.872 163.919 141.905 164.196 142.063 164.44C142.283 164.785 142.666 164.976 143.058 164.976C143.264 164.976 143.475 164.924 143.661 164.814C146.011 163.459 148.466 160.138 149.509 156.53C150.663 160.765 153.089 164.297 156.386 166.383C158.568 167.766 161.018 168.46 163.622 168.46C165.249 168.46 166.938 168.187 168.666 167.642C170.058 167.202 171.283 166.479 172.365 165.555C171.35 168.163 170.575 171.14 170.058 174.509C169.967 175.117 170.408 175.677 171.044 175.768C171.102 175.777 171.159 175.777 171.216 175.777C171.786 175.777 172.284 175.38 172.365 174.83C173.7 166.134 176.725 160.2 181.347 157.19C185.745 154.328 190.129 155.238 190.167 155.247C190.794 155.391 191.416 155.013 191.564 154.419C191.713 153.826 191.325 153.233 190.703 153.089C190.488 153.041 185.343 151.931 180.084 155.329C179.017 156.018 178.05 156.87 177.136 157.812C178.414 153.993 179.017 149.457 179.122 144.719C186.698 141.781 192.971 138.488 197.666 135.689C199.767 145.016 198.058 155.156 192.043 163.531C180.878 179.07 159.229 182.616 143.69 171.451C139.268 168.273 135.856 164.23 133.439 159.741C134.224 160.464 135.114 161.172 136.244 161.789C139.134 163.378 140.819 163.761 141.929 163.655H141.924Z" fill="#EBFF32"/>
<path d="M178.241 131.248C176.351 118.494 165.431 117.911 164.641 117.882C160.463 117.714 157.018 118.935 154.395 121.514C148.236 127.573 148.064 139.962 148.509 148.117C147.657 146.93 146.47 145.954 144.934 145.231C138.378 142.149 132.731 146.05 129.831 149.462C128.223 140.551 130.07 131.028 135.77 123.098C146.934 107.56 168.584 104.013 184.123 115.178C191.287 120.327 195.866 127.711 197.666 135.689C192.971 138.488 186.702 141.786 179.122 144.719C179.222 140.23 178.883 135.584 178.241 131.248Z" fill="#5BB3FD"/>
<path d="M124.002 158.506C122.074 153.429 121.131 148.021 121.217 142.594C121.203 145.289 121.404 147.973 121.863 150.62C122.332 153.304 123.055 155.941 124.002 158.506Z" fill="#2CE69D"/>
<path d="M128.668 150.998C128.979 150.514 129.372 149.993 129.826 149.457C130.472 153.032 131.693 156.501 133.435 159.736C130.061 156.626 129.515 153.008 129.477 152.673C129.329 152.649 129.18 152.601 129.046 152.52C128.793 152.366 128.625 152.137 128.548 151.883C128.462 151.596 128.486 151.275 128.668 150.998Z" fill="#2CE69D"/>
<path d="M202.576 169.121C204.035 167.087 205.285 164.971 206.356 162.804C206.682 163.641 206.634 164.608 206.074 165.393L198.278 176.241C197.537 177.275 196.226 177.591 195.087 177.165C197.838 174.834 200.379 172.178 202.576 169.121Z" fill="#2CE69D"/>
<path d="M121.217 142.599C121.203 145.293 121.404 147.978 121.863 150.624C122.332 153.309 123.055 155.946 124.002 158.511C126.878 166.082 131.913 172.925 138.981 178.002C155.505 189.875 177.619 188.243 192.225 175.284L194.431 176.868C194.632 177.017 194.862 177.079 195.086 177.165C197.838 174.834 200.379 172.178 202.576 169.121C204.035 167.087 205.284 164.971 206.356 162.804C206.17 162.32 205.892 161.87 205.442 161.545L203.236 159.961C207.184 150.658 207.581 140.422 204.782 131.056C202.174 122.328 196.795 114.36 188.827 108.631C169.67 94.8683 142.982 99.2374 129.218 118.394C123.94 125.74 121.351 134.196 121.217 142.604V142.599ZM128.553 151.883C128.467 151.596 128.491 151.275 128.673 150.998C128.984 150.514 129.376 149.993 129.831 149.457C128.223 140.546 130.07 131.023 135.77 123.093C146.934 107.555 168.584 104.009 184.123 115.173C191.287 120.322 195.866 127.707 197.666 135.684C199.767 145.011 198.058 155.152 192.043 163.526C180.878 179.065 159.228 182.611 143.69 171.446C139.268 168.269 135.856 164.225 133.439 159.736C130.065 156.626 129.52 153.008 129.482 152.673C129.333 152.649 129.185 152.601 129.051 152.52C128.797 152.366 128.63 152.137 128.553 151.883Z" fill="#2CE69D"/>
<path d="M143.355 171.911C127.587 160.578 123.978 138.531 135.306 122.763C140.795 115.125 148.93 110.082 158.214 108.56C167.498 107.038 176.815 109.225 184.453 114.714C192.091 120.203 197.135 128.338 198.657 137.622C200.178 146.906 197.991 156.224 192.502 163.861C185.63 173.423 174.82 178.515 163.856 178.515C156.74 178.515 149.562 176.371 143.355 171.911ZM158.396 109.68C149.413 111.149 141.541 116.03 136.229 123.424C125.266 138.685 128.759 160.018 144.015 170.987C159.276 181.951 180.61 178.457 191.579 163.196C196.891 155.802 199.006 146.787 197.537 137.804C196.068 128.822 191.182 120.949 183.793 115.638C177.935 111.426 171.054 109.225 163.981 109.225C162.129 109.225 160.262 109.378 158.401 109.68H158.396Z" fill="#698E8B"/>
<path d="M126.816 132.224C124.576 139.718 124.696 147.657 127.003 154.975" stroke="white" stroke-width="3.63222" stroke-miterlimit="10" stroke-linecap="round"/>
<path d="M260.742 210.922L258.871 213.526C256.62 216.658 252.245 217.374 249.113 215.124L208.758 186.126C206.955 184.83 206.543 182.312 207.839 180.509L213.172 173.086C214.468 171.283 216.986 170.87 218.789 172.166L259.144 201.164C262.276 203.415 262.993 207.79 260.742 210.922Z" fill="#2CE69D"/>
<path d="M253.111 170.355L262.711 151.744L263.065 170.772L274.297 171.8L270.2 183.07L286.246 192.541L258.921 194.795L253.111 170.355Z" fill="#FF7140"/>
<path d="M221.005 174.476C219.215 180.457 215.597 185.473 211.271 189.976C210.008 191.292 208.639 192.536 207.653 194.072C206.668 195.608 206.089 197.527 206.605 199.279C207.17 201.188 208.883 202.514 210.616 203.495C212.032 204.299 213.559 204.969 215.181 205.132C216.799 205.294 218.531 204.897 219.727 203.792C217.871 206.682 219.105 210.869 221.871 212.908C224.637 214.952 228.461 215.1 231.739 214.057C231.246 215.732 232.241 217.584 233.72 218.507C235.199 219.431 237.046 219.574 238.783 219.402C242.717 219.01 247.067 217.402 249.369 214.191C249.369 214.191 260.266 206.634 262.677 190.445C265.089 174.255 248.297 165.474 248.297 165.474C243.531 163.335 239.803 162.512 234.486 162.631C229.27 162.751 222.795 168.494 221.01 174.461L221.005 174.476Z" fill="#FFC20B"/>
<path opacity="0.5" d="M144.097 171.374C159.635 182.539 181.285 178.993 192.45 163.454C203.614 147.916 200.068 126.266 184.53 115.101C168.991 103.937 147.341 107.483 136.177 123.021C125.012 138.56 128.558 160.21 144.097 171.374ZM140.527 133.703C141.666 129.271 143.47 124.883 146.662 121.605C154.515 113.541 167.642 113.426 177.131 118.418C179.893 119.868 182.415 121.777 184.539 124.06C190.11 130.047 192.9 138.464 192.254 146.619C191.608 154.773 187.602 162.564 181.515 168.029C177.107 171.987 171.489 174.791 165.574 175.078C156.199 175.538 147.246 169.408 142.853 161.114C138.459 152.821 138.191 142.786 140.532 133.703H140.527Z" fill="white"/>
</g>
</g>
<defs>
<clipPath id="clip0_26822_1788">
<rect width="300" height="300" fill="white"/>
</clipPath>
<clipPath id="clip1_26822_1788">
<rect width="300" height="300" fill="white"/>
</clipPath>
</defs>
</svg>
